# xmcd
# 
# Track frame offsets:
#   150
#   18913
#   36309
#   52633
#   69052
#   89712
#   108296
#   124140
#   141398
#   158493
#   175203
#   193042
#   211281
#   231337
#   248088
# 
# Disc length: 3557 seconds
# 
# Revision: 0
# Processed by: cddbd v1.5.2PL0 Copyright (c) Steve Scherf et al.
# Submitted via: VOLTOCDX V1.0.24 
# 
DISCID=c60de30f
DTITLE=Various Artist - ASK-74A PARTY HITS 2 DISK SET
DYEAR=2011
DGENRE=Karaoke
TTITLE0=Rehab Amy - Winehouse - All Star Karaoke
TTITLE1=You Know I'm No Good - Amy Winehouse - All Star Karaoke
TTITLE2=Girlfriend - Avril Lavigne - All Star Karaoke
TTITLE3=Innocense - Avril Lavigne - All Star Karaoke
TTITLE4=When You're Gone - Avril Lavigne - All Star Karaoke
TTITLE5=The Story - Brandi Carlile - All Star Karaoke
TTITLE6=I'll Stand By You - Carrie Underwood - All Star Karaoke
TTITLE7=Home - Daughtry - All Star Karaoke
TTITLE8=It's Not Over - Daughtry - All Star Karaoke
TTITLE9=Wait For You - Elliot Yamin - All Star Karaoke
TTITLE10=This Ain't A Scene, It's An Arms Race - Fall Out Boy - All Star Karaoke
TTITLE11=Thls Fr Th Mmrs - Fall Out Boy - All Star Karaoke
TTITLE12=Glamorous - Fergie - All Star Karaoke
TTITLE13=Fergalicious - Fergie feat. will.i.am - All Star Karaoke
TTITLE14=4 In The Morning - Gwen Stefani - All Star Karaoke
EXTD=
EXTT0=
EXTT1=
EXTT2=
EXTT3=
EXTT4=
EXTT5=
EXTT6=
EXTT7=
EXTT8=
EXTT9=
EXTT10=
EXTT11=
EXTT12=
EXTT13=
EXTT14=
PLAYORDER=
